<svg xmlns="http://www.w3.org/2000/svg" xmlns:xlink="http://www.w3.org/1999/xlink" width="500" zoomAndPan="magnify" viewBox="0 0 375 374.999991" height="500" preserveAspectRatio="xMidYMid meet" version="1.0"><defs><g/><clipPath id="3b18bb7484"><path d="M 94.601562 152.246094 L 167 152.246094 L 167 187 L 94.601562 187 Z M 94.601562 152.246094 " clip-rule="nonzero"/></clipPath><clipPath id="860a7c245b"><path d="M 218 192 L 280.601562 192 L 280.601562 202 L 218 202 Z M 218 192 " clip-rule="nonzero"/></clipPath><clipPath id="c80d880452"><path d="M 246 202 L 269 202 L 269 207.746094 L 246 207.746094 Z M 246 202 " clip-rule="nonzero"/></clipPath></defs><g clip-path="url(#3b18bb7484)"><path fill="#ffffff" d="M 162.519531 152.734375 C 163.863281 152.515625 165.207031 152.265625 166.570312 152.246094 C 162.640625 152.851562 158.757812 153.808594 155.050781 155.242188 C 151.628906 156.5625 148.398438 158.367188 145.480469 160.585938 C 142.765625 162.617188 140.332031 164.988281 137.753906 167.179688 C 134.847656 169.589844 131.671875 171.65625 128.390625 173.515625 C 121.355469 177.460938 113.832031 180.480469 106.175781 182.996094 C 102.875 184.0625 99.542969 185.054688 96.179688 185.90625 C 95.683594 186.015625 95.195312 186.1875 94.6875 186.21875 C 96.605469 185.753906 98.488281 185.152344 100.382812 184.59375 C 108.40625 182.125 116.300781 179.15625 123.753906 175.277344 C 129.015625 172.527344 134.058594 169.300781 138.480469 165.324219 C 139.535156 164.414062 140.484375 163.390625 141.550781 162.492188 C 147.460938 157.375 154.855469 154.121094 162.519531 152.734375 Z M 162.519531 152.734375 " fill-opacity="1" fill-rule="nonzero"/></g><path fill="#ffffff" d="M 181.132812 153.359375 C 189.640625 152.800781 198.183594 153.460938 206.609375 154.648438 C 208.8125 154.820312 210.871094 155.664062 212.945312 156.355469 C 219.449219 158.582031 225.878906 161.03125 232.117188 163.925781 C 226.789062 163.449219 221.441406 163.292969 216.09375 163.277344 C 209.707031 163.25 203.320312 163.4375 196.9375 163.75 C 195.421875 163.835938 193.882812 163.882812 192.382812 163.605469 C 191.1875 163.386719 190.011719 162.929688 189.078125 162.140625 C 186.539062 159.867188 184.128906 157.433594 181.386719 155.398438 C 180.910156 155.027344 180.320312 154.769531 179.980469 154.253906 C 179.847656 154.078125 179.824219 153.796875 180.027344 153.664062 C 180.34375 153.433594 180.753906 153.402344 181.132812 153.359375 Z M 181.132812 153.359375 " fill-opacity="1" fill-rule="nonzero"/><path fill="#ffffff" d="M 167.507812 154.902344 C 169.679688 154.679688 171.90625 154.785156 174.007812 155.40625 C 176.804688 156.203125 179.328125 157.8125 181.382812 159.855469 C 183.109375 161.554688 184.507812 163.558594 185.679688 165.671875 C 177.273438 166.011719 168.863281 166.324219 160.457031 166.667969 C 159.300781 164.15625 157.808594 161.765625 155.839844 159.804688 C 155.515625 159.464844 155.070312 159.195312 154.925781 158.722656 C 154.898438 158.351562 155.308594 158.191406 155.585938 158.054688 C 157.007812 157.457031 158.46875 156.960938 159.941406 156.507812 C 162.410156 155.757812 164.9375 155.15625 167.507812 154.902344 Z M 167.507812 154.902344 " fill-opacity="1" fill-rule="nonzero"/><path fill="#ffffff" d="M 151.054688 160.152344 C 151.609375 159.878906 152.148438 159.496094 152.785156 159.46875 C 153.277344 159.519531 153.652344 159.882812 154.019531 160.175781 C 155.101562 161.148438 155.9375 162.347656 156.734375 163.554688 C 157.179688 164.242188 157.601562 164.941406 157.992188 165.660156 C 158.125 165.921875 158.277344 166.242188 158.144531 166.53125 C 157.949219 166.832031 157.546875 166.796875 157.234375 166.804688 C 154.929688 166.777344 152.625 166.816406 150.320312 166.882812 C 148.113281 166.980469 145.902344 167.101562 143.722656 167.457031 C 142.929688 167.59375 142.125 167.742188 141.382812 168.078125 C 143.066406 165.210938 145.6875 163.007812 148.570312 161.410156 C 149.378906 160.949219 150.222656 160.5625 151.054688 160.152344 Z M 151.054688 160.152344 " fill-opacity="1" fill-rule="nonzero"/><path fill="#ffffff" d="M 204.539062 165.179688 C 209.574219 165.054688 214.613281 164.925781 219.648438 164.691406 C 225.078125 164.507812 230.523438 164.585938 235.9375 165.085938 C 240.621094 165.496094 245.296875 165.996094 249.957031 166.609375 C 252.414062 166.9375 254.871094 167.292969 257.300781 167.78125 C 260.90625 168.480469 264.550781 169.195312 267.929688 170.675781 C 268.945312 171.125 269.9375 171.636719 270.878906 172.226562 C 268.960938 171.488281 266.996094 170.855469 264.972656 170.472656 C 264.113281 170.296875 263.242188 170.210938 262.382812 170.039062 C 261.40625 169.957031 260.425781 170.046875 259.449219 170.035156 C 256.410156 170.058594 253.367188 170.15625 250.351562 170.566406 C 249.960938 170.628906 249.503906 170.699219 249.257812 171.050781 C 249.042969 171.394531 249.207031 171.816406 249.363281 172.148438 C 250.40625 173.988281 251.34375 175.886719 252.3125 177.769531 C 252.976562 179.09375 253.667969 180.40625 254.3125 181.738281 C 251.671875 177.539062 248.035156 173.980469 243.820312 171.371094 C 243.097656 170.925781 242.363281 170.507812 241.597656 170.144531 C 240.554688 169.667969 239.429688 169.40625 238.300781 169.226562 C 236.132812 168.945312 233.992188 168.484375 231.835938 168.128906 C 221.550781 166.347656 211.121094 165.300781 200.679688 165.285156 C 201.964844 165.195312 203.25 165.214844 204.539062 165.179688 Z M 204.539062 165.179688 " fill-opacity="1" fill-rule="nonzero"/><path fill="#ffffff" d="M 230.214844 170.878906 C 231.84375 171.222656 233.484375 171.8125 234.738281 172.949219 C 235.460938 173.59375 235.996094 174.453125 236.226562 175.398438 C 236.382812 176.015625 236.300781 176.710938 235.917969 177.234375 C 235.453125 177.875 234.710938 178.246094 233.976562 178.484375 C 234.652344 177.972656 235.34375 177.390625 235.628906 176.5625 C 235.898438 175.789062 235.644531 174.9375 235.171875 174.296875 C 234.429688 173.289062 233.378906 172.558594 232.316406 171.925781 C 231.636719 171.53125 230.933594 171.183594 230.214844 170.878906 Z M 230.214844 170.878906 " fill-opacity="1" fill-rule="nonzero"/><path fill="#ffffff" d="M 261.539062 170.875 C 261.992188 170.820312 262.449219 170.796875 262.90625 170.84375 C 265.054688 171.277344 267.230469 171.652344 269.320312 172.339844 C 269.929688 172.539062 270.542969 172.785156 271.039062 173.203125 C 271.707031 173.726562 272.132812 174.488281 272.40625 175.277344 C 272.890625 176.695312 273.394531 178.109375 273.742188 179.5625 C 273.882812 180.1875 274.046875 180.878906 273.722656 181.472656 C 273.535156 181.855469 273.09375 182.042969 272.683594 182.015625 C 268.574219 181.707031 264.457031 181.542969 260.339844 181.476562 C 259.285156 181.433594 258.195312 181.578125 257.179688 181.226562 C 256.035156 180.835938 255.207031 179.890625 254.53125 178.929688 C 253.429688 177.332031 252.449219 175.652344 251.535156 173.941406 C 251.25 173.363281 250.988281 172.699219 251.152344 172.046875 C 251.28125 171.570312 251.792969 171.359375 252.246094 171.328125 C 255.332031 171.023438 258.441406 171.027344 261.539062 170.875 Z M 261.539062 170.875 " fill-opacity="1" fill-rule="nonzero"/><path fill="#ffffff" d="M 227.667969 170.980469 C 229.273438 170.851562 230.796875 171.582031 232.140625 172.382812 C 233 172.90625 233.835938 173.519531 234.417969 174.355469 C 234.890625 175.03125 235.132812 175.890625 234.980469 176.714844 C 234.757812 177.453125 234.082031 177.964844 233.363281 178.175781 C 232.445312 178.449219 231.464844 178.410156 230.535156 178.234375 C 228.332031 177.804688 226.429688 176.210938 225.539062 174.167969 C 225.261719 173.554688 225.21875 172.785156 225.664062 172.238281 C 226.167969 171.625 226.84375 171.054688 227.667969 170.980469 Z M 227.667969 170.980469 " fill-opacity="1" fill-rule="nonzero"/><path fill="#ffffff" d="M 238.164062 171.023438 C 239.753906 170.753906 241.351562 171.378906 242.644531 172.269531 C 243.46875 172.835938 244.203125 173.527344 244.878906 174.261719 C 245.5 174.898438 245.898438 175.730469 246.113281 176.585938 C 246.265625 177.273438 246.277344 178.070312 245.824219 178.652344 C 245.292969 179.328125 244.371094 179.542969 243.550781 179.527344 C 241.347656 179.316406 239.257812 178.125 237.957031 176.335938 C 237.484375 175.695312 237.101562 174.984375 236.816406 174.242188 C 236.585938 173.558594 236.519531 172.785156 236.808594 172.109375 C 237.046875 171.550781 237.570312 171.132812 238.164062 171.023438 Z M 238.164062 171.023438 " fill-opacity="1" fill-rule="nonzero"/><path fill="#ffffff" d="M 241.859375 171.265625 C 243.261719 172.023438 244.660156 172.824219 245.867188 173.878906 C 246.472656 174.429688 247.054688 175.046875 247.375 175.8125 C 247.625 176.386719 247.652344 177.074219 247.367188 177.636719 C 247.148438 178.097656 246.761719 178.449219 246.367188 178.757812 C 246.78125 178.007812 246.878906 177.097656 246.605469 176.285156 C 246.1875 174.980469 245.226562 173.945312 244.234375 173.042969 C 243.5 172.375 242.667969 171.828125 241.859375 171.265625 Z M 241.859375 171.265625 " fill-opacity="1" fill-rule="nonzero"/><path fill="#ffffff" d="M 272.816406 174.242188 C 272.855469 174.222656 272.9375 174.179688 272.976562 174.15625 C 273.367188 174.238281 273.667969 174.535156 273.949219 174.800781 C 274.761719 175.664062 275.328125 176.726562 275.808594 177.800781 C 276.125 178.554688 276.476562 179.304688 276.589844 180.121094 C 276.625 180.472656 276.65625 180.886719 276.398438 181.164062 C 276.234375 181.269531 276.054688 181.136719 275.933594 181.03125 C 274.878906 179.992188 274.351562 178.5625 273.683594 177.265625 C 273.332031 176.511719 272.949219 175.761719 272.753906 174.949219 C 272.71875 174.71875 272.648438 174.4375 272.816406 174.242188 Z M 272.816406 174.242188 " fill-opacity="1" fill-rule="nonzero"/><path fill="#ffffff" d="M 201.832031 176.8125 C 203.613281 176.492188 205.496094 176.507812 207.199219 177.171875 C 208.695312 177.734375 209.988281 178.757812 210.984375 179.996094 C 212.226562 181.539062 213.054688 183.378906 213.605469 185.269531 C 214.199219 187.347656 214.484375 189.515625 214.453125 191.675781 C 214.34375 193.601562 214.085938 195.523438 213.578125 197.386719 C 213.097656 199.132812 212.378906 200.835938 211.277344 202.289062 C 210.308594 203.570312 209.023438 204.625 207.535156 205.242188 C 205.847656 205.957031 203.960938 206.128906 202.15625 205.890625 C 203.726562 205.738281 205.285156 205.230469 206.558594 204.277344 C 208.003906 203.210938 209.042969 201.683594 209.753906 200.054688 C 210.671875 197.9375 211.136719 195.648438 211.402344 193.367188 C 211.691406 191.140625 211.652344 188.882812 211.371094 186.660156 C 211.128906 184.828125 210.683594 183 209.828125 181.347656 C 209.09375 179.929688 208.019531 178.660156 206.628906 177.855469 C 205.195312 176.996094 203.488281 176.707031 201.832031 176.8125 Z M 201.832031 176.8125 " fill-opacity="1" fill-rule="nonzero"/><path fill="#ffffff" d="M 142.324219 181.761719 C 143.148438 183.175781 144.035156 184.578125 145.199219 185.746094 C 145.875 186.417969 146.660156 186.992188 147.558594 187.335938 C 148.496094 187.707031 149.515625 187.800781 150.511719 187.871094 C 162.625 188.605469 174.742188 189.292969 186.855469 190 C 187.59375 190.070312 188.335938 190.03125 189.0625 190.160156 C 183.324219 190.035156 177.585938 189.980469 171.84375 189.875 C 164.472656 189.769531 157.101562 189.644531 149.730469 189.539062 C 148.777344 189.5 147.804688 189.589844 146.867188 189.386719 C 145.457031 189.070312 144.355469 187.902344 143.921875 186.554688 C 143.394531 184.953125 142.824219 183.367188 142.324219 181.761719 Z M 142.324219 181.761719 " fill-opacity="1" fill-rule="nonzero"/><path fill="#ffffff" d="M 151.011719 191.785156 C 151.4375 191.734375 151.859375 191.632812 152.292969 191.636719 C 160.292969 191.949219 168.292969 192.238281 176.296875 192.476562 C 179.191406 192.546875 182.089844 192.644531 184.988281 192.652344 C 185.3125 192.660156 185.636719 192.691406 185.960938 192.734375 C 184.808594 192.703125 183.664062 192.832031 182.515625 192.84375 C 175.242188 193.140625 167.964844 193.160156 160.6875 193.128906 C 154.953125 193.097656 149.222656 193 143.488281 192.863281 C 145.992188 192.484375 148.503906 192.148438 151.011719 191.785156 Z M 151.011719 191.785156 " fill-opacity="1" fill-rule="nonzero"/><g clip-path="url(#860a7c245b)"><path fill="#ffffff" d="M 218.246094 192.667969 C 218.3125 192.492188 218.503906 192.523438 218.65625 192.523438 C 222.945312 192.726562 227.242188 192.910156 231.539062 192.8125 C 232.210938 194.136719 233.359375 195.222656 234.761719 195.734375 C 235.667969 196.082031 236.648438 196.222656 237.621094 196.175781 C 245.378906 196.667969 253.148438 197.070312 260.925781 196.960938 C 263.695312 196.859375 266.460938 196.691406 269.21875 196.4375 C 271.363281 196.226562 273.507812 195.972656 275.621094 195.527344 C 276.527344 195.324219 277.4375 195.105469 278.300781 194.742188 C 278.746094 194.546875 279.214844 194.324219 279.488281 193.898438 C 279.929688 194.46875 280.128906 195.175781 280.332031 195.859375 C 280.519531 196.503906 280.394531 197.238281 279.949219 197.753906 C 279.308594 198.503906 278.359375 198.886719 277.445312 199.195312 C 275.539062 199.796875 273.546875 200.058594 271.566406 200.292969 C 266.429688 200.832031 261.261719 200.984375 256.097656 201.160156 C 245.421875 201.507812 234.730469 201.191406 224.089844 200.292969 C 222.375 200.136719 220.660156 199.980469 218.949219 199.777344 C 218.816406 199.738281 218.597656 199.761719 218.574219 199.578125 C 218.578125 197.273438 218.457031 194.960938 218.246094 192.667969 Z M 218.246094 192.667969 " fill-opacity="1" fill-rule="nonzero"/></g><path fill="#ffffff" d="M 210.757812 204.207031 C 213.652344 201.714844 215.136719 197.886719 215.300781 194.128906 C 215.554688 195.167969 215.546875 196.246094 215.613281 197.304688 C 215.648438 198.714844 215.691406 200.132812 215.609375 201.542969 C 215.671875 201.832031 216.035156 201.910156 216.285156 201.96875 C 217.515625 202.15625 218.769531 202.136719 220.007812 202.234375 C 219.660156 202.816406 219.132812 203.265625 218.65625 203.738281 C 217.921875 204.445312 217.152344 205.121094 216.363281 205.769531 C 215.460938 206.503906 214.222656 206.453125 213.128906 206.589844 C 210.777344 206.757812 208.402344 206.933594 206.046875 206.71875 C 207.769531 206.214844 209.402344 205.382812 210.757812 204.207031 Z M 210.757812 204.207031 " fill-opacity="1" fill-rule="nonzero"/><path fill="#ffffff" d="M 124.925781 196.066406 C 127.109375 196.234375 129.277344 196.515625 131.457031 196.714844 C 141.523438 197.730469 151.597656 198.699219 161.675781 199.578125 C 168.421875 200.15625 175.167969 200.707031 181.921875 201.097656 C 183.582031 201.164062 185.238281 201.289062 186.894531 201.300781 C 184.21875 201.339844 181.539062 201.269531 178.863281 201.246094 C 172.082031 201.191406 165.300781 201.136719 158.515625 201.109375 C 158.03125 201.097656 157.542969 201.125 157.0625 201.089844 C 146.347656 199.421875 135.640625 197.722656 124.925781 196.066406 Z M 124.925781 196.066406 " fill-opacity="1" fill-rule="nonzero"/><g clip-path="url(#c80d880452)"><path fill="#ffffff" d="M 261.914062 202.773438 C 264.011719 202.714844 266.109375 202.617188 268.203125 202.441406 C 267.84375 203.097656 267.230469 203.5625 266.667969 204.035156 C 264.066406 206.0625 260.882812 207.429688 257.570312 207.621094 C 255.457031 207.742188 253.316406 207.324219 251.402344 206.421875 C 249.558594 205.5625 247.921875 204.296875 246.511719 202.832031 C 251.644531 202.898438 256.78125 202.90625 261.914062 202.773438 Z M 261.914062 202.773438 " fill-opacity="1" fill-rule="nonzero"/></g><g fill="#ffffff" fill-opacity="1"><g transform="translate(100.290724, 237.704617)"><g><path d="M 3.328125 0 C 2.285156 0 1.765625 -0.519531 1.765625 -1.5625 L 1.765625 -14.65625 C 1.765625 -15.695312 2.285156 -16.21875 3.328125 -16.21875 L 7.796875 -16.21875 C 10.515625 -16.21875 12.613281 -15.519531 14.09375 -14.125 C 15.570312 -12.726562 16.3125 -10.726562 16.3125 -8.125 C 16.3125 -5.53125 15.570312 -3.523438 14.09375 -2.109375 C 12.613281 -0.703125 10.515625 0 7.796875 0 Z M 4.71875 -2.4375 L 7.609375 -2.4375 C 11.347656 -2.4375 13.21875 -4.332031 13.21875 -8.125 C 13.21875 -11.894531 11.347656 -13.78125 7.609375 -13.78125 L 4.71875 -13.78125 Z M 4.71875 -2.4375 "/></g></g></g><g fill="#ffffff" fill-opacity="1"><g transform="translate(121.214874, 237.704617)"><g><path d="M 3.25 0.1875 C 2.257812 0.1875 1.765625 -0.316406 1.765625 -1.328125 L 1.765625 -14.71875 C 1.765625 -15.71875 2.265625 -16.21875 3.265625 -16.21875 L 8.8125 -16.21875 C 10.59375 -16.21875 11.960938 -15.789062 12.921875 -14.9375 C 13.890625 -14.082031 14.375 -12.890625 14.375 -11.359375 C 14.375 -10.148438 14.054688 -9.148438 13.421875 -8.359375 C 12.796875 -7.566406 11.894531 -7.035156 10.71875 -6.765625 C 11.5 -6.515625 12.144531 -5.921875 12.65625 -4.984375 L 14.375 -1.796875 C 14.632812 -1.304688 14.679688 -0.851562 14.515625 -0.4375 C 14.359375 -0.0195312 13.96875 0.1875 13.34375 0.1875 C 12.925781 0.1875 12.585938 0.0976562 12.328125 -0.078125 C 12.066406 -0.253906 11.835938 -0.523438 11.640625 -0.890625 L 9.3125 -5.171875 C 9.039062 -5.691406 8.71875 -6.039062 8.34375 -6.21875 C 7.96875 -6.394531 7.488281 -6.484375 6.90625 -6.484375 L 4.71875 -6.484375 L 4.71875 -1.328125 C 4.71875 -0.316406 4.226562 0.1875 3.25 0.1875 Z M 4.71875 -8.671875 L 8.296875 -8.671875 C 10.441406 -8.671875 11.515625 -9.546875 11.515625 -11.296875 C 11.515625 -13.023438 10.441406 -13.890625 8.296875 -13.890625 L 4.71875 -13.890625 Z M 4.71875 -8.671875 "/></g></g></g><g fill="#ffffff" fill-opacity="1"><g transform="translate(140.391614, 237.704617)"><g><path d="M 3.25 0.1875 C 2.257812 0.1875 1.765625 -0.316406 1.765625 -1.328125 L 1.765625 -14.875 C 1.765625 -15.894531 2.257812 -16.40625 3.25 -16.40625 C 4.226562 -16.40625 4.71875 -15.894531 4.71875 -14.875 L 4.71875 -1.328125 C 4.71875 -0.316406 4.226562 0.1875 3.25 0.1875 Z M 3.25 0.1875 "/></g></g></g><g fill="#ffffff" fill-opacity="1"><g transform="translate(150.279487, 237.704617)"><g><path d="M 8.21875 0.1875 C 7.425781 0.1875 6.863281 -0.195312 6.53125 -0.96875 L 0.53125 -14.4375 C 0.28125 -15.019531 0.289062 -15.492188 0.5625 -15.859375 C 0.832031 -16.222656 1.226562 -16.40625 1.75 -16.40625 C 2.195312 -16.40625 2.53125 -16.304688 2.75 -16.109375 C 2.96875 -15.921875 3.15625 -15.632812 3.3125 -15.25 L 8.25 -3.765625 L 13.203125 -15.265625 C 13.367188 -15.640625 13.566406 -15.921875 13.796875 -16.109375 C 14.023438 -16.304688 14.347656 -16.40625 14.765625 -16.40625 C 15.253906 -16.40625 15.625 -16.21875 15.875 -15.84375 C 16.132812 -15.476562 16.132812 -15.007812 15.875 -14.4375 L 9.859375 -0.96875 C 9.691406 -0.582031 9.484375 -0.289062 9.234375 -0.09375 C 8.984375 0.09375 8.644531 0.1875 8.21875 0.1875 Z M 8.21875 0.1875 "/></g></g></g><g fill="#ffffff" fill-opacity="1"><g transform="translate(170.07702, 237.704617)"><g><path d="M 3.328125 0 C 2.285156 0 1.765625 -0.519531 1.765625 -1.5625 L 1.765625 -14.65625 C 1.765625 -15.695312 2.285156 -16.21875 3.328125 -16.21875 L 11.546875 -16.21875 C 12.335938 -16.21875 12.734375 -15.832031 12.734375 -15.0625 C 12.734375 -14.269531 12.335938 -13.875 11.546875 -13.875 L 4.59375 -13.875 L 4.59375 -9.40625 L 11.046875 -9.40625 C 11.835938 -9.40625 12.234375 -9.015625 12.234375 -8.234375 C 12.234375 -7.453125 11.835938 -7.0625 11.046875 -7.0625 L 4.59375 -7.0625 L 4.59375 -2.34375 L 11.546875 -2.34375 C 12.335938 -2.34375 12.734375 -1.953125 12.734375 -1.171875 C 12.734375 -0.390625 12.335938 0 11.546875 0 Z M 3.328125 0 "/></g></g></g><g fill="#ffffff" fill-opacity="1"><g transform="translate(187.207451, 237.704617)"><g><path d="M 3.28125 0.1875 C 2.269531 0.1875 1.765625 -0.332031 1.765625 -1.375 L 1.765625 -14.65625 C 1.765625 -15.695312 2.285156 -16.21875 3.328125 -16.21875 L 11.359375 -16.21875 C 12.160156 -16.21875 12.5625 -15.832031 12.5625 -15.0625 C 12.5625 -14.269531 12.160156 -13.875 11.359375 -13.875 L 4.71875 -13.875 L 4.71875 -9.296875 L 10.875 -9.296875 C 11.675781 -9.296875 12.078125 -8.910156 12.078125 -8.140625 C 12.078125 -7.347656 11.675781 -6.953125 10.875 -6.953125 L 4.71875 -6.953125 L 4.71875 -1.375 C 4.71875 -0.332031 4.238281 0.1875 3.28125 0.1875 Z M 3.28125 0.1875 "/></g></g></g><g fill="#ffffff" fill-opacity="1"><g transform="translate(203.533157, 237.704617)"><g><path d="M 3.265625 0 C 2.265625 0 1.765625 -0.503906 1.765625 -1.515625 L 1.765625 -14.78125 C 1.765625 -15.78125 2.257812 -16.28125 3.25 -16.28125 C 4.226562 -16.28125 4.71875 -15.78125 4.71875 -14.78125 L 4.71875 -2.5 L 11.390625 -2.5 C 12.242188 -2.5 12.671875 -2.085938 12.671875 -1.265625 C 12.671875 -0.421875 12.242188 0 11.390625 0 Z M 3.265625 0 "/></g></g></g><g fill="#ffffff" fill-opacity="1"><g transform="translate(219.858862, 237.704617)"><g><path d="M 9.03125 0.234375 C 7.46875 0.234375 6.097656 -0.109375 4.921875 -0.796875 C 3.753906 -1.492188 2.847656 -2.46875 2.203125 -3.71875 C 1.554688 -4.96875 1.234375 -6.4375 1.234375 -8.125 C 1.234375 -9.820312 1.554688 -11.289062 2.203125 -12.53125 C 2.847656 -13.769531 3.753906 -14.726562 4.921875 -15.40625 C 6.085938 -16.09375 7.457031 -16.4375 9.03125 -16.4375 C 10.613281 -16.4375 11.988281 -16.09375 13.15625 -15.40625 C 14.320312 -14.726562 15.226562 -13.769531 15.875 -12.53125 C 16.519531 -11.289062 16.84375 -9.828125 16.84375 -8.140625 C 16.84375 -6.441406 16.519531 -4.96875 15.875 -3.71875 C 15.226562 -2.46875 14.320312 -1.492188 13.15625 -0.796875 C 11.988281 -0.109375 10.613281 0.234375 9.03125 0.234375 Z M 9.03125 -2.296875 C 10.519531 -2.296875 11.675781 -2.804688 12.5 -3.828125 C 13.332031 -4.859375 13.75 -6.289062 13.75 -8.125 C 13.75 -9.957031 13.335938 -11.378906 12.515625 -12.390625 C 11.703125 -13.410156 10.539062 -13.921875 9.03125 -13.921875 C 7.550781 -13.921875 6.394531 -13.410156 5.5625 -12.390625 C 4.738281 -11.378906 4.328125 -9.957031 4.328125 -8.125 C 4.328125 -6.289062 4.738281 -4.859375 5.5625 -3.828125 C 6.394531 -2.804688 7.550781 -2.296875 9.03125 -2.296875 Z M 9.03125 -2.296875 "/></g></g></g><g fill="#ffffff" fill-opacity="1"><g transform="translate(241.311841, 237.704617)"><g><path d="M 3.25 0.1875 C 2.257812 0.1875 1.765625 -0.316406 1.765625 -1.328125 L 1.765625 -14.71875 C 1.765625 -15.71875 2.265625 -16.21875 3.265625 -16.21875 L 8.8125 -16.21875 C 10.59375 -16.21875 11.960938 -15.789062 12.921875 -14.9375 C 13.890625 -14.082031 14.375 -12.890625 14.375 -11.359375 C 14.375 -10.148438 14.054688 -9.148438 13.421875 -8.359375 C 12.796875 -7.566406 11.894531 -7.035156 10.71875 -6.765625 C 11.5 -6.515625 12.144531 -5.921875 12.65625 -4.984375 L 14.375 -1.796875 C 14.632812 -1.304688 14.679688 -0.851562 14.515625 -0.4375 C 14.359375 -0.0195312 13.96875 0.1875 13.34375 0.1875 C 12.925781 0.1875 12.585938 0.0976562 12.328125 -0.078125 C 12.066406 -0.253906 11.835938 -0.523438 11.640625 -0.890625 L 9.3125 -5.171875 C 9.039062 -5.691406 8.71875 -6.039062 8.34375 -6.21875 C 7.96875 -6.394531 7.488281 -6.484375 6.90625 -6.484375 L 4.71875 -6.484375 L 4.71875 -1.328125 C 4.71875 -0.316406 4.226562 0.1875 3.25 0.1875 Z M 4.71875 -8.671875 L 8.296875 -8.671875 C 10.441406 -8.671875 11.515625 -9.546875 11.515625 -11.296875 C 11.515625 -13.023438 10.441406 -13.890625 8.296875 -13.890625 L 4.71875 -13.890625 Z M 4.71875 -8.671875 "/></g></g></g><g fill="#ffffff" fill-opacity="1"><g transform="translate(260.488578, 237.704617)"><g><path d="M 7.109375 0.1875 C 6.128906 0.1875 5.640625 -0.328125 5.640625 -1.359375 L 5.640625 -7.453125 L 0.71875 -14.375 C 0.507812 -14.644531 0.414062 -14.9375 0.4375 -15.25 C 0.46875 -15.570312 0.597656 -15.84375 0.828125 -16.0625 C 1.054688 -16.289062 1.378906 -16.40625 1.796875 -16.40625 C 2.390625 -16.40625 2.910156 -16.085938 3.359375 -15.453125 L 7.15625 -10.078125 L 10.96875 -15.453125 C 11.21875 -15.796875 11.457031 -16.039062 11.6875 -16.1875 C 11.914062 -16.332031 12.195312 -16.40625 12.53125 -16.40625 C 13.132812 -16.40625 13.53125 -16.1875 13.71875 -15.75 C 13.90625 -15.3125 13.828125 -14.847656 13.484375 -14.359375 L 8.578125 -7.421875 L 8.578125 -1.359375 C 8.578125 -0.328125 8.085938 0.1875 7.109375 0.1875 Z M 7.109375 0.1875 "/></g></g></g></svg>